<svg version="1.1" id="Layer_1" xmlns="http://www.w3.org/2000/svg" xmlns:xlink="http://www.w3.org/1999/xlink" x="0px" y="0px"
	 width="100%" viewBox="0 0 1080 1080" enable-background="new 0 0 1080 1080" xml:space="preserve">
<path fill="#E3272C" opacity="1.000000" stroke="none" 
	d="M 640.9921 508.0062 C 638.5707 524.4297 636.2094 540.8624 633.7142 557.2747 C 629.5204 584.8586 625.2563 612.4319 620.9901 640.0047 C 619.5699 649.1829 617.8873 658.3239 616.6506 667.5256 C 616.06 671.9196 614.0209 673.1223 609.7405 673.1077 C 564.803 672.9544 519.8648 672.9896 474.4591 673.021 C 472.7009 668.3553 470.9396 663.7144 470.1927 658.9156 C 463.0243 612.8562 456.0278 566.7701 448.9792 520.6921 C 448.3777 516.7604 447.7554 512.8318 447 507 L 456 507 C 460.4962 535.6851 464.8454 562.4374 469.0374 589.2144 C 472.8455 613.5399 476.4492 637.8972 480.2856 662.2181 C 480.4951 663.546 481.9368 665.6349 482.942 665.7182 C 487.511 666.0972 492.1291 665.8843 497.2445 665.8843 C 496.4207 658.0248 495.6889 650.9327 494.9321 643.8432 C 492.0164 616.531 489.0462 589.2245 486.1883 561.9063 C 484.3176 544.0245 482.6051 526.1263 480 507 L 505 507 C 506.9369 527.6425 508.3233 546.2407 509.282 564.9065 L 511.0084 586.5424 C 512.627 609.0257 514.2656 631.0734 515.8171 653.1273 C 516.731 666.1185 516.6694 665.97 529.687 666.0297 C 533.6099 666.0477 534.3505 664.6577 534.2628 661.0704 C 533.6525 636.1326 533.2434 611.1898 527 507 L 555 507 C 554.8046 609.5551 554.3879 632.0415 554.0348 654.5289 C 553.8559 665.9255 553.9177 665.6516 565.5538 666.0698 C 570.5269 666.2485 571.675 664.4481 571.9365 659.903 C 573.3521 635.3002 575.0583 610.7141 577.0751 586.0071 L 578.6165 564.4736 C 579.8254 545.3965 580.9881 526.7845 583 507 L 607 507 C 606.9562 511.7721 606.8823 514.4394 606.6064 517.0857 C 604.3802 538.4382 602.1513 559.7905 599.8533 581.1354 C 597.6799 601.3236 595.3924 621.4995 593.2156 641.6874 C 592.3675 649.552 591.6844 657.4345 590.864 665.9543 C 595.1886 665.9543 598.8377 665.7073 602.4373 666.0238 C 606.0266 666.3395 607.45 664.9612 607.9791 661.4871 C 614.6657 617.5919 621.4241 573.7076 628.2338 529.8312 C 629.3524 522.6236 630.8047 515.4677 632 507 L 641 507 z"/>
<path fill="#23303B" opacity="1.000000" stroke="none" 
	d="
M641.439575,508.003906 
	C638.318481,508.036438 635.644897,508.066742 632.065674,508.087769 
	C623.109558,508.133942 615.059021,508.189423 607.008423,508.244873 
	C599.025269,508.172150 591.042114,508.099365 582.125488,508.028931 
	C573.053650,508.092560 564.915222,508.153870 556.336060,508.121887 
	C547.689392,508.088867 539.483459,508.149139 530.798218,508.123657 
	C522.012268,508.074768 513.705627,508.111633 505.399017,508.148499 
	C497.520386,508.110626 489.641724,508.072754 480.837952,508.068634 
	C471.934845,508.134705 463.956848,508.167023 455.978882,508.199371 
	C453.326538,508.126801 450.674225,508.054230 447.585327,508.028564 
	C446.149261,508.050995 445.147095,507.966187 444.150757,508.011230 
	C433.447113,508.494598 434.816650,504.836914 435.205505,496.126801 
	C435.248932,495.153778 436.243164,493.528870 437.004486,493.395721 
	C441.702362,492.573883 441.607117,489.171753 442.095062,485.548584 
	C443.436096,475.591064 449.089203,468.060364 456.877258,462.192780 
	C459.444763,460.258423 460.873779,458.381683 461.522247,455.191681 
	C464.724152,439.440186 474.325623,429.767731 490.104065,426.555328 
	C492.943298,425.977295 496.098663,426.013824 498.939392,426.593414 
	C503.619720,427.548309 507.245270,427.271088 509.806702,422.488037 
	C515.712219,411.460388 534.731079,405.108734 545.809937,407.502747 
	C553.668762,409.200897 559.862061,412.896149 566.044128,417.417206 
	C567.885376,418.763824 570.450745,419.959412 572.629150,419.870544 
	C587.469177,419.265259 597.991455,425.864929 605.264587,438.435822 
	C607.363770,442.064178 609.889160,444.487915 614.619141,445.626984 
	C625.481323,448.242767 632.716492,456.267639 639.022705,465.061371 
	C640.280701,466.815643 641.479980,468.612000 642.685059,470.782959 
	C642.779419,471.448334 642.894958,471.719757 643.010559,471.991150 
	C643.010559,471.991150 643.001526,471.999329 643.006775,471.994202 
	C643.688660,478.026306 644.216003,484.087463 645.175781,490.079376 
	C645.354187,491.193207 647.198853,492.751312 648.399353,492.873108 
	C655.385437,493.581757 652.660828,498.834717 652.892334,502.419434 
	C653.143005,506.300812 650.634705,508.026367 646.864685,507.998779 
	C645.205505,507.986633 643.546204,507.999908 641.439575,508.003906 
M525.131348,471.699829 
	C529.446472,468.679352 533.411255,464.841064 538.150452,462.810608 
	C547.656067,458.738037 557.069397,460.171265 565.645325,466.009094 
	C568.614380,468.030212 569.875854,470.913544 567.530212,474.127411 
	C565.421448,477.016846 562.643005,477.294464 559.727722,475.035889 
	C559.073486,474.529053 558.339233,474.114349 557.608337,473.719391 
	C550.786743,470.033081 544.069397,470.644043 537.770264,474.765411 
	C531.533936,478.845703 528.526123,484.792511 528.568176,492.500488 
	C563.921631,492.500488 598.826355,492.500488 633.917786,492.500488 
	C633.917786,487.861847 634.982605,483.186310 633.704895,479.276276 
	C630.680237,470.020477 625.292786,462.154785 616.225220,457.490326 
	C607.445435,452.973938 597.109497,453.765167 590.572327,459.776093 
	C587.781555,462.342255 585.072754,463.747589 581.928955,460.833344 
	C579.082581,458.194855 579.642151,454.563019 583.755554,451.565796 
	C587.590393,448.771484 591.886047,446.609741 596.226624,444.021851 
	C592.825623,437.255463 587.299072,432.705353 579.581909,430.718628 
	C571.429749,428.619934 568.978577,429.836792 566.569275,437.680939 
	C565.468628,441.264252 564.037476,444.760651 559.537476,443.475067 
	C555.169495,442.227173 555.181152,438.584808 556.422302,434.871613 
	C556.632324,434.243378 556.773743,433.592163 556.945007,432.951050 
	C559.243896,424.343964 558.566711,422.910156 550.098450,419.583374 
	C547.957214,418.742188 545.646240,418.173584 543.361938,417.882324 
	C528.989624,416.049805 517.535339,424.192902 513.992737,438.175568 
	C513.444092,440.340973 511.217377,443.277893 509.391449,443.578522 
	C507.647675,443.865570 505.392548,441.208008 503.407104,439.782257 
	C502.659760,439.245544 502.142944,438.314117 501.344238,437.933655 
	C489.670715,432.371918 472.348816,443.679016 472.664551,455.277802 
	C479.023102,457.113434 485.059113,458.599609 490.902771,460.637329 
	C494.512512,461.896027 496.231934,464.810669 494.224915,468.591858 
	C492.281525,472.253113 489.265228,471.841217 486.128967,470.099548 
	C485.114563,469.536255 484.066528,469.008301 482.982971,468.599030 
	C475.116913,465.627869 467.864746,467.080658 461.385406,472.118774 
	C454.852448,477.198578 451.585327,483.922974 451.889557,492.466003 
	C474.119293,492.466003 495.860535,492.466003 517.759460,492.466003 
	C517.910339,484.779694 520.115601,478.106354 525.131348,471.699829 
z"/>
<path fill="#FAEACC" opacity="1.000000" stroke="none" 
	d="
M524.926208,471.997192 
	C520.115601,478.106354 517.910339,484.779694 517.759460,492.466003 
	C495.860535,492.466003 474.119293,492.466003 451.889557,492.466003 
	C451.585327,483.922974 454.852448,477.198578 461.385406,472.118774 
	C467.864746,467.080658 475.116913,465.627869 482.982971,468.599030 
	C484.066528,469.008301 485.114563,469.536255 486.128967,470.099548 
	C489.265228,471.841217 492.281525,472.253113 494.224915,468.591858 
	C496.231934,464.810669 494.512512,461.896027 490.902771,460.637329 
	C485.059113,458.599609 479.023102,457.113434 472.664551,455.277802 
	C472.348816,443.679016 489.670715,432.371918 501.344238,437.933655 
	C502.142944,438.314117 502.659760,439.245544 503.407104,439.782257 
	C505.392548,441.208008 507.647675,443.865570 509.391449,443.578522 
	C511.217377,443.277893 513.444092,440.340973 513.992737,438.175568 
	C517.535339,424.192902 528.989624,416.049805 543.361938,417.882324 
	C545.646240,418.173584 547.957214,418.742188 550.098450,419.583374 
	C558.566711,422.910156 559.243896,424.343964 556.945007,432.951050 
	C556.773743,433.592163 556.632324,434.243378 556.422302,434.871613 
	C555.181152,438.584808 555.169495,442.227173 559.537476,443.475067 
	C564.037476,444.760651 565.468628,441.264252 566.569275,437.680939 
	C568.978577,429.836792 571.429749,428.619934 579.581909,430.718628 
	C587.299072,432.705353 592.825623,437.255463 596.226624,444.021851 
	C591.886047,446.609741 587.590393,448.771484 583.755554,451.565796 
	C579.642151,454.563019 579.082581,458.194855 581.928955,460.833344 
	C585.072754,463.747589 587.781555,462.342255 590.572327,459.776093 
	C597.109497,453.765167 607.445435,452.973938 616.225220,457.490326 
	C625.292786,462.154785 630.680237,470.020477 633.704895,479.276276 
	C634.982605,483.186310 633.917786,487.861847 633.917786,492.500488 
	C598.826355,492.500488 563.921631,492.500488 528.568176,492.500488 
	C528.526123,484.792511 531.533936,478.845703 537.770264,474.765411 
	C544.069397,470.644043 550.786743,470.033081 557.608337,473.719391 
	C558.339233,474.114349 559.073486,474.529053 559.727722,475.035889 
	C562.643005,477.294464 565.421448,477.016846 567.530212,474.127411 
	C569.875854,470.913544 568.614380,468.030212 565.645325,466.009094 
	C557.069397,460.171265 547.656067,458.738037 538.150452,462.810608 
	C533.411255,464.841064 529.446472,468.679352 524.926208,471.997192 
z"/>
</svg>